<svg xmlns="http://www.w3.org/2000/svg" viewBox="0 0 24 24"><path fill="#888" d="M21 14.7c.2-.5.2-1 0-1.4l.9-.4a.2.2 0 0 0 0-.3 4.7 4.7 0 0 0-1-1.8.2.2 0 0 0-.2 0l-.8.4a3.7 3.7 0 0 0-1.2-.6v-1s0-.2-.2-.2a4.7 4.7 0 0 0-2 0 .2.2 0 0 0-.2.2v1l-1.2.6-.8-.4a.2.2 0 0 0-.3 0 4.7 4.7 0 0 0-1 1.8.2.2 0 0 0 .1.3l.8.4v1.4l-.8.4a.2.2 0 0 0 0 .3c.1.7.5 1.3 1 1.8a.2.2 0 0 0 .2 0l.8-.4 1.2.6v1s0 .2.2.2h2a.2.2 0 0 0 .2-.2v-1l1.2-.6.8.4h.3a4.7 4.7 0 0 0 1-1.8.2.2 0 0 0-.1-.3l-.8-.4zm-3.5.8A1.5 1.5 0 0 1 16 14a1.5 1.5 0 0 1 1.5-1.5A1.5 1.5 0 0 1 19 14c0 .8-.7 1.5-1.5 1.5zM5 11a2 2 0 1 0 0-4 2 2 0 0 0 0 4zm7 1h.2a5.8 5.8 0 0 1 1.1-1.9 1.2 1.2 0 0 1 1.5-.2l.3.1c.3-.5.4-1 .4-1.5 0-2-1.6-3.5-3.5-3.5a3.5 3.5 0 0 0-3.5 3.5c0 2 1.6 3.5 3.5 3.5zm3.3 6.4V18h-.5a1.2 1.2 0 0 1-1.6-.1 5.7 5.7 0 0 1-1.2-2.2c-.4-1 .7-1.6.8-1.6a3.2 3.2 0 0 1 0-.2l-.3-.2a1.3 1.3 0 0 1-.3-.2H12a5 5 0 0 1-2.1-.5h-.3A3.6 3.6 0 0 0 6 16.6v.9A1.5 1.5 0 0 0 7.5 19h8a1.2 1.2 0 0 1-.2-.6zm-7.9-5.8A4.6 4.6 0 0 0 5.1 16H3a1 1 0 0 1-1-1v-1c0-1.1.9-2 2-2h2c.6 0 1 .2 1.4.6z"/></svg>
