<svg xmlns="http://www.w3.org/2000/svg" viewBox="0 0 494 210"><path fill="#231f20" d="M2 120 118 8l32 196Z"/><path fill="#813799" d="m56 159-36 34-9-59zm91-138-17 16-4-29z"/><path fill="#fff" d="M46 73h17v75H46V73"/><path fill="#231f20" d="M161 107c2-2 3-5 3-9s-1-7-3-8c-2-2-6-3-11-3h-19l4 22h14c6 0 10 0 12-2zm20-9c0 12-5 20-14 23l19 27h-21l-16-24h-12v24h-17V73h29c11 0 20 2 25 6s7 10 7 19m74 12c0-7-2-12-7-17-4-5-9-7-15-7-7 0-12 2-16 7-5 5-7 10-7 17s2 12 7 17c4 5 9 7 16 7 6 0 11-2 15-7 5-5 7-10 7-17zm5 27c-7 8-16 12-28 12a38 38 0 0 1-39-39c0-11 4-20 12-28 7-7 16-11 27-11a38 38 0 0 1 40 39c0 11-4 20-12 27m60-4c9 0 15-3 20-10l11 11c-8 10-18 15-30 15a39 39 0 0 1-40-39 39 39 0 0 1 40-39c12 0 22 5 31 14l-11 12c-5-7-12-10-19-10s-12 2-17 6c-4 4-6 10-6 17s2 12 6 17c4 4 9 6 15 6m44-60h17v31l28-31h21l-30 33a4790 4790 0 0 1 30 42h-19l-22-30-8 9v21h-17V73m92 15c-2 1-3 3-3 5s1 4 3 5c2 2 7 3 14 5s13 4 17 8c4 3 5 8 5 15s-2 12-7 16c-5 5-12 7-20 7-12 0-22-5-32-14l10-12c8 7 16 11 22 11l8-2 2-5c0-3-1-5-3-6l-11-4c-8-2-15-5-19-8s-6-8-6-16c0-7 3-12 8-16s11-6 19-6a46 46 0 0 1 28 10l-8 12c-7-5-14-7-21-7l-6 2"/><path fill="#fff" d="M108 87v61H91V87H70V73h59l2 14h-23m23 54a7 7 0 1 1-15 0 7 7 0 0 1 15 0m-47 0a7 7 0 1 1-14 0 7 7 0 0 1 14 0"/></svg>
