<svg fill="none" viewBox="0 0 24 24" xmlns="http://www.w3.org/2000/svg"><path d="M11 21H5.6c-.56 0-.84 0-1.054-.109a1 1 0 0 1-.437-.437C4 20.24 4 19.96 4 19.4v-1.716c0-.636 0-.953.048-1.218a3 3 0 0 1 2.418-2.418c.077-.014.158-.024.25-.03a3 3 0 0 1 .488-.015c.156.011.243.027.394.07.145.04.406.159.929.395.463.21.957.362 1.473.449m9.873.287a3.432 3.432 0 0 1-.206.006c-1.025 0-1.96-.458-2.667-1.21-.708.752-1.642 1.21-2.667 1.21-.069 0-.137-.002-.206-.006A5.606 5.606 0 0 0 14 16.398c0 2.214 1.275 4.075 3 4.602 1.725-.527 3-2.388 3-4.602 0-.412-.044-.813-.127-1.194zM15 7a4 4 0 1 1-8 0 4 4 0 0 1 8 0z" stroke="#444" stroke-width="2"/></svg>
