<svg fill="#444" viewBox="0 0 24 24" xmlns="http://www.w3.org/2000/svg"><path d="M4.546 20.891 5 20l-.454.891zm-.437-.437L5 20l-.891.454zm-.061-3.988.984.178-.984-.178zm2.418-2.418.178.984-.178-.984zm2.06.42-.412.911.413-.91zm-.928-.396.271-.962-.271.962zm-.882-.055-.076-.997.076.997zm.488-.014.074-.998-.074.998zm4.962 1.9a1 1 0 0 0-.332-1.972l.332 1.972zM14 22a1 1 0 1 0 0-2v2zm3.29-4.707a1 1 0 1 0 1.414 1.414l-1.414-1.414zm-2.198-2.542a1 1 0 0 0 1.937.498l-1.937-.498zM17.997 20a1 1 0 1 0 0 2v-2zm.01 2a1 1 0 1 0 0-2v2zM14 7a3 3 0 0 1-3 3v2a5 5 0 0 0 5-5h-2zm-3 3a3 3 0 0 1-3-3H6a5 5 0 0 0 5 5v-2zM8 7a3 3 0 0 1 3-3V2a5 5 0 0 0-5 5h2zm3-3a3 3 0 0 1 3 3h2a5 5 0 0 0-5-5v2zm0 10a4.98 4.98 0 0 1-2.06-.443l-.826 1.822c.881.4 1.86.621 2.886.621v-2zm-6 5.4v-1.716H3V19.4h2zm.6.6c-.297 0-.459 0-.575-.01-.105-.009-.083-.02-.025.01l-.908 1.782c.271.138.541.182.77.201.217.018.474.017.738.017v-2zM3 19.4c0 .264 0 .521.017.738.019.229.063.499.201.77L5 20c.03.058.019.08.01-.025A8.194 8.194 0 0 1 5 19.4H3zm2 .6-1.782.908a2 2 0 0 0 .874.874L5 20zm0-2.316c0-.68.004-.886.032-1.04l-1.968-.357c-.068.376-.064.805-.064 1.397h2zm1.64-4.664a3.395 3.395 0 0 0-.353.044l.357 1.968c.036-.007.082-.013.148-.018L6.64 13.02zm-1.608 3.624a2 2 0 0 1 1.612-1.612l-.357-1.968a4 4 0 0 0-3.223 3.223l1.968.357zm3.907-3.087c-.47-.213-.83-.38-1.07-.447l-.542 1.925c-.006-.002.005 0 .043.016.036.014.086.034.154.064.139.06.325.144.59.264l.825-1.822zm-2.147 1.457A2.11 2.11 0 0 1 7.129 15l.149-1.995c-.238-.017-.426-.001-.638.015l.152 1.994zm1.077-1.904a2.694 2.694 0 0 0-.591-.105L7.129 15c.06.004.084.008.1.01.016.003.04.009.098.025l.542-1.925zm3.966.82c-.271.046-.55.07-.835.07v2a7.04 7.04 0 0 0 1.165-.097l-.33-1.972zM14 20H5.6v2H14v-2zm4.997-4.5c0 .173-.045.305-.32.57-.153.148-.334.295-.585.504-.238.198-.518.435-.802.719l1.414 1.414c.216-.216.436-.404.667-.595.218-.181.474-.39.696-.603.476-.46.93-1.078.93-2.009h-2zm-1-1a1 1 0 0 1 1 1h2a3 3 0 0 0-3-3v2zm-.968.75a1 1 0 0 1 .968-.75v-2a3 3 0 0 0-2.905 2.25l1.937.5zm.968 6.75h.01v-2h-.01v2z"/></svg>
