<svg fill="#888" viewBox="0 0 24 24" xmlns="http://www.w3.org/2000/svg"><path d="M19.198 17.25c0-.024-.024-.048-.024-.048-1.428-2.579-1.449-6.33-1.449-6.376v-.068a5.706 5.706 0 0 0-3.084-4.996v-1.06A1.698 1.698 0 0 0 12.938 3h-1.61a1.698 1.698 0 0 0-1.704 1.703v.944c-1.956.897-3.337 2.877-3.337 5.179 0 .047-.024 3.82-1.45 6.376l-.023.024c-.206.483-.23.873-.023 1.197.183.322.552.484 1.059.529h3.89A2.272 2.272 0 0 0 11.993 21a2.27 2.27 0 0 0 2.255-2.048h3.913c.484-.024.852-.207 1.036-.529.206-.324.206-.714 0-1.174zM10.496 4.681a.85.85 0 0 1 .852-.853h1.588a.85.85 0 0 1 .853.853v.713a5.327 5.327 0 0 0-.874-.206 2.506 2.506 0 0 0-.414-.047h-.091c-.115-.024-.254-.024-.392-.024-.115 0-.23 0-.346.024h-.091c-.092 0-.207.023-.299.023h-.046c-.254.047-.508.092-.738.162zm1.52 15.466c-.714 0-1.29-.529-1.405-1.198h2.809a1.433 1.433 0 0 1-1.404 1.198zm6.491-2.164c-.023.047-.138.092-.345.115H5.892c-.23-.023-.345-.068-.368-.115-.023-.047-.023-.162.068-.392 1.52-2.762 1.564-6.606 1.564-6.766a4.853 4.853 0 0 1 3.06-4.512h.024c.623-.254 1.266-.345 1.91-.345.643.023 1.29.162 1.888.437h.023a4.842 4.842 0 0 1 2.835 4.42v.068c0 .575.115 4.096 1.543 6.698.09.233.09.348.068.392zm-7.55-10.057c.114.207.068.46-.14.576-.046.047-1.242.829-1.312 2.762 0 .183.047 1.68-.322 3.405-.047.207-.207.346-.413.346h-.092a.424.424 0 0 1-.322-.508c.346-1.702.299-3.222.299-3.222v-.023c.091-2.417 1.658-3.43 1.726-3.476.185-.113.437-.045.575.14zM8.77 16.19a.461.461 0 1 1-.923-.002.461.461 0 0 1 .923.002z"/><path fill="red" d="M11.435 19.977c-.14-.07-.34-.223-.443-.341-.184-.21-.387-.603-.337-.652.014-.014.637-.018 1.385-.009l1.36.016-.142.305c-.321.694-1.162 1.008-1.823.681zM5.624 17.98c-.101-.074-.088-.123.222-.826.798-1.81 1.155-3.429 1.331-6.036.09-1.33.182-1.772.5-2.404.464-.917 1.253-1.716 2.129-2.155.777-.39 1.355-.53 2.214-.536A4.777 4.777 0 0 1 16.49 8.97c.253.602.338 1.094.399 2.307.08 1.614.292 2.953.665 4.21.205.69.32.99.694 1.804.264.577.273.612.168.688-.161.118-12.631.12-12.793.002zm2.992-1.427c.119-.094.158-.179.158-.342 0-.453-.496-.665-.814-.348-.434.435.171 1.071.656.69zm.427-1.634c.132-.114.174-.238.272-.805.123-.71.24-2.091.24-2.85a3.405 3.405 0 0 1 1.01-2.455c.496-.502.566-.676.373-.922-.278-.354-.793-.114-1.352.629-.695.925-.855 1.468-.963 3.263-.08 1.329-.135 1.857-.266 2.54-.067.35-.015.568.159.669.173.101.36.077.527-.069zM13.372 5.253c-.422-.129-1.302-.183-1.914-.117-.335.036-.685.081-.775.101l-.166.036v-.37c0-.422.092-.64.363-.87.187-.156.192-.157 1.24-.157.894 0 1.08.016 1.233.106.27.157.41.479.41.944 0 .43-.015.442-.391.327z"/></svg>
