<svg fill="#888" viewBox="0 0 24 24" xmlns="http://www.w3.org/2000/svg"><path d="M19.198 17.25c0-.024-.024-.048-.024-.048-1.428-2.579-1.449-6.33-1.449-6.376v-.068a5.706 5.706 0 0 0-3.084-4.996v-1.06A1.698 1.698 0 0 0 12.938 3h-1.61a1.698 1.698 0 0 0-1.704 1.703v.944c-1.956.897-3.337 2.877-3.337 5.179 0 .047-.024 3.82-1.45 6.376l-.023.024c-.206.483-.23.873-.023 1.197.183.322.552.484 1.059.529h3.89A2.272 2.272 0 0 0 11.993 21a2.27 2.27 0 0 0 2.255-2.048h3.913c.484-.024.852-.207 1.036-.529.206-.324.206-.714 0-1.174zM10.496 4.681a.85.85 0 0 1 .852-.853h1.588a.85.85 0 0 1 .853.853v.713a5.327 5.327 0 0 0-.874-.206 2.506 2.506 0 0 0-.414-.047h-.091c-.115-.024-.254-.024-.392-.024-.115 0-.23 0-.346.024h-.091c-.092 0-.207.023-.299.023h-.046c-.254.047-.508.092-.738.162zm1.52 15.466c-.714 0-1.29-.529-1.405-1.198h2.809a1.433 1.433 0 0 1-1.404 1.198zm6.491-2.164c-.023.047-.138.092-.345.115H5.892c-.23-.023-.345-.068-.368-.115-.023-.047-.023-.162.068-.392 1.52-2.762 1.564-6.606 1.564-6.766a4.853 4.853 0 0 1 3.06-4.512h.024c.623-.254 1.266-.345 1.91-.345.643.023 1.29.162 1.888.437h.023a4.842 4.842 0 0 1 2.835 4.42v.068c0 .575.115 4.096 1.543 6.698.09.233.09.348.068.392zm-7.55-10.057c.114.207.068.46-.14.576-.046.047-1.242.829-1.312 2.762 0 .183.047 1.68-.322 3.405-.047.207-.207.346-.413.346h-.092a.424.424 0 0 1-.322-.508c.346-1.702.299-3.222.299-3.222v-.023c.091-2.417 1.658-3.43 1.726-3.476.185-.113.437-.045.575.14zM8.77 16.19a.461.461 0 1 1-.923-.002.461.461 0 0 1 .923.002z"/><path fill="#0f0" d="M5.647 18.024c-.144-.058-.12-.226.1-.675.833-1.71 1.268-3.628 1.423-6.286.043-.732.087-1.147.144-1.368.287-1.112.889-2.032 1.772-2.709.526-.402 1.062-.656 1.806-.856.36-.096.481-.108 1.139-.108.81 0 1.127.06 1.88.35 1.039.4 2.108 1.459 2.568 2.541.266.625.349 1.046.39 1.982.044.972.065 1.242.152 1.935.213 1.702.619 3.17 1.23 4.448.114.238.22.49.235.561.023.111.011.136-.082.179-.134.061-12.605.067-12.757.006zm2.877-1.413a.47.47 0 0 0 .017-.835c-.435-.225-.891.237-.645.654.074.126.272.247.406.248.043 0 .143-.03.222-.067zm.55-1.709c.199-.2.377-1.425.432-2.976.04-1.123.096-1.503.299-2.012.214-.537.519-.95 1.06-1.43.135-.122.156-.165.156-.324a.412.412 0 0 0-.094-.294c-.123-.143-.386-.183-.57-.088-.22.114-.709.63-.96 1.016-.549.842-.771 1.692-.774 2.964a16.098 16.098 0 0 1-.214 2.322c-.105.639-.085.779.126.898.152.086.413.05.538-.076zM11.683 20.085c-.383-.096-.74-.397-.92-.777a1.558 1.558 0 0 1-.12-.305c0-.04.301-.052 1.367-.052 1.551 0 1.449-.029 1.268.357a1.543 1.543 0 0 1-.694.685 1.56 1.56 0 0 1-.901.092z"/><path style="fill:#0f0;" d="M13.53 5.303a6.192 6.192 0 0 0-.573-.122c-.363-.063-.504-.07-1.11-.052-.518.014-.772.037-1.004.09-.17.04-.317.072-.324.072a3.25 3.25 0 0 1-.002-.425c.011-.39.02-.439.108-.589.117-.2.281-.33.498-.394.232-.07 1.806-.07 2.039 0 .216.065.38.195.497.394.09.153.097.194.108.623.014.512.028.488-.237.403z"/></svg>
